<?xml version="1.0" encoding="iso-8859-1"?>
<!-- Uploaded to: SVG Repo, www.svgrepo.com, Generator: SVG Repo Mixer Tools -->
<svg version="1.1" id="Layer_1" xmlns="http://www.w3.org/2000/svg" xmlns:xlink="http://www.w3.org/1999/xlink" 
	 viewBox="0 0 512 512" xml:space="preserve">
<path style="fill:#9F633C;" d="M508,338.4c-0.4,8.4-2.8,13.6-9.2,13.6H11.6c-6.4,0-6.8-5.2-7.6-13.6v-28c0-7.6,1.2-10.4,7.6-10.4
	h487.2c6.4,0,8.8,3.2,9.2,10.4V338.4z"/>
<path style="fill:#140500;" d="M498.8,356H11.6C1.2,356,0.8,346.4,0,338.8v-28.4c0-6.8,0.8-14.4,11.6-14.4h487.2
	c12.4,0,12.8,10.8,13.2,14v28l0,0C511.6,353.6,503.6,356,498.8,356z M11.6,304c-3.2,0-3.6,0-3.6,6.4v28c0.8,9.6,1.6,9.6,3.6,9.6
	h487.2c1.2,0,4.8,0,5.2-9.6v-28c-0.4-6-2-6.4-5.2-6.4H11.6z"/>
<rect x="36" y="352" style="fill:#D89F6C;" width="52" height="120"/>
<path style="fill:#140500;" d="M88,476H36c-2.4,0-4-1.6-4-4V352c0-2.4,1.6-4,4-4h52c2.4,0,4,1.6,4,4v120C92,474.4,90.4,476,88,476z
	 M40,468h44V356H40V468z"/>
<rect x="424" y="352" style="fill:#D89F6C;" width="52" height="120"/>
<g>
	<path style="fill:#140500;" d="M476,476h-52c-2.4,0-4-1.6-4-4V352c0-2.4,1.6-4,4-4h52c2.4,0,4,1.6,4,4v120
		C480,474.4,478.4,476,476,476z M428,468h44V356h-44V468z"/>
	<path style="fill:#140500;" d="M424,400H88c-2.4,0-4-1.6-4-4s1.6-4,4-4h336c2.4,0,4,1.6,4,4S426.4,400,424,400z"/>
	<path style="fill:#140500;" d="M492,320h-32c-2.4,0-4-1.6-4-4s1.6-4,4-4h32c2.4,0,4,1.6,4,4S494.4,320,492,320z"/>
	<path style="fill:#140500;" d="M432,320H20c-2.4,0-4-1.6-4-4s1.6-4,4-4h412c2.4,0,4,1.6,4,4S434.4,320,432,320z"/>
</g>
<polyline style="fill:#D89F6C;" points="88,72 88,40 52,40 52,72 "/>
<path style="fill:#140500;" d="M88,76c-2.4,0-4-1.6-4-4V44H56v28c0,2.4-1.6,4-4,4s-4-1.6-4-4V40c0-2.4,1.6-4,4-4h36c2.4,0,4,1.6,4,4
	v32C92,74.4,90.4,76,88,76z"/>
<polyline style="fill:#D89F6C;" points="52,224 52,300 88,300 88,224 "/>
<path style="fill:#140500;" d="M88,304H52c-2.4,0-4-1.6-4-4v-76c0-2.4,1.6-4,4-4s4,1.6,4,4v72h28v-72c0-2.4,1.6-4,4-4s4,1.6,4,4v76
	C92,302.4,90.4,304,88,304z"/>
<polyline style="fill:#D89F6C;" points="460,72 460,40 424,40 424,72 "/>
<path style="fill:#140500;" d="M460,76c-2.4,0-4-1.6-4-4V44h-28v28c0,2.4-1.6,4-4,4s-4-1.6-4-4V40c0-2.4,1.6-4,4-4h36
	c2.4,0,4,1.6,4,4v32C464,74.4,462.4,76,460,76z"/>
<polyline style="fill:#D89F6C;" points="424,224 424,300 460,300 460,224 "/>
<path style="fill:#140500;" d="M460,304h-36c-2.4,0-4-1.6-4-4v-76c0-2.4,1.6-4,4-4s4,1.6,4,4v72h28v-72c0-2.4,1.6-4,4-4s4,1.6,4,4
	v76C464,302.4,462.4,304,460,304z"/>
<rect x="4" y="72" style="fill:#9F633C;" width="500" height="76"/>
<path style="fill:#140500;" d="M504,152H4c-2.4,0-4-1.6-4-4V72c0-2.4,1.6-4,4-4h500c2.4,0,4,1.6,4,4v76C508,150.4,506.4,152,504,152
	z M8,144h492V76H8V144z"/>
<rect x="4" y="148" style="fill:#9F633C;" width="500" height="76"/>
<g>
	<path style="fill:#140500;" d="M504,228H4c-2.4,0-4-1.6-4-4v-76c0-2.4,1.6-4,4-4h500c2.4,0,4,1.6,4,4v76
		C508,226.4,506.4,228,504,228z M8,220h492v-68H8V220z"/>
	<path style="fill:#140500;" d="M172,92H36c-2.4,0-4-1.6-4-4s1.6-4,4-4h136c2.4,0,4,1.6,4,4S174.4,92,172,92z"/>
	<path style="fill:#140500;" d="M260,92h-60c-2.4,0-4-1.6-4-4s1.6-4,4-4h60c2.4,0,4,1.6,4,4S262.4,92,260,92z"/>
	<path style="fill:#140500;" d="M304,92h-16c-2.4,0-4-1.6-4-4s1.6-4,4-4h16c2.4,0,4,1.6,4,4S306.4,92,304,92z"/>
</g>
</svg>